            <svg width="26" height="16" enable-background="new 0 0 26 26" version="1" viewBox="0 0 26 16" xmlns="http://www.w3.org/2000/svg">
              <path d="m2.8125 0.0010991a1.0001 1.0001 0 0 0-0.8125 1c0 0.55455-0.44545 1-1 1a1.0001 1.0001 0 0 0-1 1v10a1.0001 1.0001 0 0 0 1 1c0.55455 0 1 0.44546 1 1a1.0001 1.0001 0 0 0 1 1h20a1.0001 1.0001 0 0 0 1-1c0-0.55454 0.44546-1 1-1a1.0001 1.0001 0 0 0 1-1v-10a1.0001 1.0001 0 0 0-1-1c-0.55454 0-1-0.44545-1-1a1.0001 1.0001 0 0 0-1-1h-20a1.0001 1.0001 0 0 0-0.09375 0 1.0001 1.0001 0 0 0-0.09375 0zm0.78125 2h14.406v1h2v-1h2.4062c0.30628 0.76906 0.82469 1.2875 1.5938 1.5938v8.8125c-0.76906 0.30628-1.2875 0.82469-1.5938 1.5938h-2.4062v-1h-2v1h-14.406c-0.30628-0.76906-0.82469-1.2875-1.5938-1.5938v-8.8125c0.76906-0.30628 1.2875-0.82469 1.5938-1.5938zm14.406 2v2h2v-2zm0 3v2h2v-2zm0 3v2h2v-2z" enable-background="accumulate" overflow="visible" stroke-width="2" />
              <style>
                path {
                  text-indent:0;
                  text-transform:none;
                }
              </style>
            </svg>
