<?xml version="1.0" encoding="UTF-8"?>
<svg width="32" height="16" preserveAspectRatio="xMidYMid" version="1.0" viewBox="0 0 24 12" xmlns="http://www.w3.org/2000/svg">
 <metadata>Created by potrace 1.15, written by Peter Selinger 2001-2017</metadata>
 <g transform="matrix(.0039261 0 0 -.0039261 -1.4249 18.53)">
  <path d="m813 4723-103-4v-309h-355l14-330h369l6-42c39-273 39-1414 0-1659l-7-39h-368l-14-330h355v-318l41-7c23-4 126-7 229-7s206 3 229 7l41 7v318h670v-318l41-7c23-4 126-7 229-7s206 3 229 7l41 7v318h670v-318l37-7c48-9 432-9 472 0l31 7v318h680v-318l31-7c39-9 423-9 469 0l35 6v314l338 3 337 2v-318l38-7c48-9 416-9 465 0l37 7v318h335v2400h-335v307l-135 6c-74 3-196 3-270 0l-135-6v-307l-337 2-338 3v302l-132 6c-73 3-194 3-268 0l-135-6v-307h-680v307l-135 6c-74 3-196 3-270 0l-135-6v-307h-670v307l-135 6c-74 3-196 3-270 0l-135-6v-307h-670v310h-63c-35 0-111 2-168 4s-150 1-206-1zm1141-666c3-12 11-97 18-187 24-309 11-1402-18-1507l-6-23h-725l-7 32c-39 197-39 1454 0 1676l6 32h726zm1218-42c20-182 30-569 25-940-6-371-21-707-33-727-3-4-169-8-368-8h-363l-7 48c-38 277-38 1365 1 1647l6 45 366-2 366-3zm1203 53c39-103 45-1264 9-1660l-7-68h-735l-6 68c-35 381-35 1263 0 1610l6 62h364c283 0 366-3 369-12zm1219-42c37-316 37-1287 0-1628l-7-58h-734l-6 73c-37 424-31 1544 8 1655 3 9 86 12 368 12h364zm841-1686c-336 0-363 1-370 18-3 9-13 152-22 317-21 431-7 1292 23 1388 5 16 31 17 369 17z"/>
 </g>
</svg>
